,
  Hottest scene tracker on the net !!!   http://www.scenetime.com
 
         Please seed back after your download is completed

           Credit goes  to all seeders and  http://www.scenetime.com
 



...................................NFO:.................................................[IMG]http://www.leetleech.org/images/14072528056404502300.png[/IMG]

[b]Inception 2010 DVDRiP XViD AC3-LEGi0N

[img]http://leetleech.org/images/48874973695367351744.png[/img]

[color=red]General[/color]
Format: AVI
File size: 2.15 GiB
Duration: 2h 28mn
Overall bit rate : 2 081 Kbps
IMDb Rating: 8.2/10  
Genre: Action | Mystery | Sci-Fi | Thriller 
Release: 16 July 2010 
IMDb Link: http://www.imdb.com/title/tt1375666/
Trailer: http://www.youtube.com/watch?v=66TuSJo4dZM
Source:    DVDR-BOW    
Encoded By : HiTM4N

[color=red]Video[/color]
Format: MPEG-4 Visual
Format profile: Advanced Simple@L5
Format settings, BVOP: Yes
Format settings, QPel: No
Format settings, GMC : No warppoints
Muxing mode: Packed bitstream
Codec ID: XVID
Bit rate: 1 685 Kbps
Width : 720 pixels
Height: 304 pixels
Display aspect ratio: 2.35:1
Frame rate: 23.976 fps
Chroma subsampling: 4:2:0
Bit depth: 24 bits
Scan type: Progressive
Bits/(Pixel*Frame): 0.321
Stream size: 1.74 GiB 

[color=red]Audio[/color]
Format: AC3
Bit rate mode: Constant
Bit rate: 384 Kbps
Channel(s): 6 channels
Sampling rate: 48.0 KHz
Stream size: 407 MiB

[img]http://leetleech.org/images/89524873606771859129.png[/img]
In a world where technology exists to enter the human mind through 
dream invasion, a highly skilled thief is given a final chance at 
redemption which involves executing his toughest job till date, Inception

[color=red]Tagline:[/color]
Your mind is the scene of the crime

[img]http://leetleech.org/images/84434050717770922575.png[/img]
Leonardo DiCaprio	... 	Cobb
Joseph Gordon-Levitt	... 	Arthur
Ellen Page	... 	Ariadne
Tom Hardy	... 	Eames
Ken Watanabe	... 	Saito
Dileep Rao	... 	Yusuf
Cillian Murphy	... 	Robert Fischer
Tom Berenger	... 	Peter Browning
Marion Cotillard	... 	Mal

[color=red]GREETZ[/color]

Noir | Joshua08 | DiLLoN | TH0RN | BMB |

bigimac | HiVE-CM8 | CLASSiFiED |

Lungbuster | skillz | ELEKTRI4KA |

FLAWL3SS | IMAGiNE |  THC | CRYS | iNK |

AND ALL AFFILIATED SITES    

[color=red]SAMPLE INCLUDED![/color][/b]

[img]http://leetleech.org/images/95521316153253938506.png[/img]

[img]http://www.leetleech.org/images/60562875672830302232.png[/img]
[img]http://img201.imageshack.us/img201/1561/vlcsnap2010103121h52m12.png[/img]
[img]http://img801.imageshack.us/img801/8813/vlcsnap2010103121h52m59.png[/img]
[img]http://img638.imageshack.us/img638/7080/vlcsnap2010103121h51m33.png[/img]
[img]http://img838.imageshack.us/img838/6092/vlcsnap2010103121h50m28.png[/img]

[img]http://leetleech.org/images/12755021538703799215.png[/img]